<svg width="24" height="24" viewBox="0 0 24 24" fill="none" xmlns="http://www.w3.org/2000/svg">
<path fill-rule="evenodd" clip-rule="evenodd" d="M18.2041 5.76205C16.5581 4.11505 14.3691 3.20705 12.0371 3.20605C7.23014 3.20605 3.31914 7.11505 3.31814 11.9201C3.31614 13.4491 3.71714 14.9521 4.48114 16.2771L3.24414 20.7931L7.86614 19.5811C9.14514 20.2771 10.5771 20.6421 12.0331 20.6421H12.0371C16.8421 20.6421 20.7531 16.7321 20.7551 11.9271C20.7561 9.59905 19.8501 7.41005 18.2041 5.76205Z" stroke="#B12028" stroke-width="2" stroke-linecap="round" stroke-linejoin="round"/>
<g opacity="0.5">
<path d="M13.0952 13.5599L13.5012 13.1569C13.8742 12.7869 14.4642 12.7399 14.8942 13.0419C15.3102 13.3339 15.6862 13.5959 16.0362 13.8399C16.5922 14.2259 16.6592 15.0179 16.1802 15.4959L15.8212 15.8549" stroke="#B12028" stroke-width="2" stroke-linecap="round" stroke-linejoin="round"/>
<path d="M8.14502 8.1789L8.50402 7.8199C8.98202 7.3419 9.77402 7.4089 10.16 7.9639C10.403 8.3139 10.665 8.6899 10.958 9.1059C11.26 9.5359 11.214 10.1259 10.843 10.4989L10.44 10.9049" stroke="#B12028" stroke-width="2" stroke-linecap="round" stroke-linejoin="round"/>
<path d="M15.8212 15.8548C14.3402 17.3288 11.8512 16.0768 9.88623 14.1108" stroke="#B12028" stroke-width="2" stroke-linecap="round" stroke-linejoin="round"/>
<path d="M9.88807 14.1137C7.92307 12.1477 6.67107 9.65971 8.14507 8.17871" stroke="#B12028" stroke-width="2" stroke-linecap="round" stroke-linejoin="round"/>
<path d="M10.4404 10.9048C10.7594 11.4078 11.1684 11.9058 11.6304 12.3678L11.6324 12.3698C12.0944 12.8318 12.5924 13.2408 13.0954 13.5598" stroke="#B12028" stroke-width="2" stroke-linecap="round" stroke-linejoin="round"/>
</g>
</svg>
