<svg width="24" height="24" viewBox="0 0 24 24" fill="none" xmlns="http://www.w3.org/2000/svg">
<path fill-rule="evenodd" clip-rule="evenodd" d="M17.2764 6.02225V6.02225C20.1906 8.93647 20.1906 13.6613 17.2764 16.5756L13.2432 20.6088C12.5565 21.2955 11.443 21.2955 10.7563 20.6088L6.72311 16.5756C3.80889 13.6613 3.80889 8.93647 6.72311 6.02225V6.02225C9.63732 3.10804 14.3622 3.10804 17.2764 6.02225Z" stroke="#B12028" stroke-width="2" stroke-linecap="round" stroke-linejoin="round"/>
<path fill-rule="evenodd" clip-rule="evenodd" d="M17.2764 6.02225V6.02225C20.1906 8.93647 20.1906 13.6613 17.2764 16.5756L13.2432 20.6088C12.5565 21.2955 11.443 21.2955 10.7563 20.6088L6.72311 16.5756C3.80889 13.6613 3.80889 8.93647 6.72311 6.02225V6.02225C9.63732 3.10804 14.3622 3.10804 17.2764 6.02225Z" stroke="#B12028" stroke-width="2" stroke-linecap="round" stroke-linejoin="round"/>
<path fill-rule="evenodd" clip-rule="evenodd" d="M11.9999 13.8596C13.414 13.8596 14.5603 12.7133 14.5603 11.2992C14.5603 9.88511 13.414 8.73877 11.9999 8.73877C10.5858 8.73877 9.43945 9.88511 9.43945 11.2992C9.43945 12.7133 10.5858 13.8596 11.9999 13.8596Z" stroke="#B12028" stroke-width="2" stroke-linecap="round" stroke-linejoin="round"/>
</svg>
