<?xml version="1.0" encoding="utf-8"?>
<!-- Generator: Adobe Illustrator 26.0.0, SVG Export Plug-In . SVG Version: 6.00 Build 0)  -->
<svg version="1.1" id="Layer_1" xmlns="http://www.w3.org/2000/svg" xmlns:xlink="http://www.w3.org/1999/xlink" x="0px" y="0px"
	 viewBox="0 0 217.4 69.6" style="enable-background:new 0 0 217.4 69.6;" xml:space="preserve">
<style type="text/css">
	.st0{fill:#ffc012;}
</style>
<g>
	<path class="st0" d="M10.5,15.6H16c2.2,0,4,0.4,5.5,1.1c1.5,0.7,2.7,1.8,3.6,3.1c0.8-1.3,1.9-2.3,3.5-2.9c1.5-0.6,3.3-1,5.4-1
		c1,0,1.9,0.1,2.7,0.3c0.7,0.2,1.4,0.4,2,0.7c0.6,0.3,1.1,0.7,1.6,1.1c0.5,0.4,1,0.9,1.4,1.4l1.4,1.4l7.2-5.6
		c0.2,0.2,0.6,0.9,1.2,2.2c1.1,2.1,1.8,4.2,2.3,6.3c0.4,2,0.7,4.1,0.7,6.3c0,0.7-0.1,1.7-0.4,2.9c-0.3,1.2-1,2.6-2.1,4.3
		c1.9,2.3,2.9,5,2.9,7.9c0,1.1-0.2,2.3-0.6,3.4c-0.4,1.1-1.1,2.1-2,3.1c-0.9,0.9-2.2,1.7-3.7,2.4c-1.6,0.7-3.5,1.1-5.8,1.2h-0.8
		c-2.5,0-4.9-0.3-7.3-0.8c-2.4-0.5-4.7-1.2-6.9-2c-2.2-0.8-4.2-1.7-6.1-2.7c-1.9-1-3.6-2-5-3l-3.5-2.4l3-4.9l4.4,2.8l3,1.6
		c1.1,0.6,2.5,1.3,4,1.9c1.5,0.7,3.1,1.2,4.7,1.8c1.6,0.5,3.2,1,4.9,1.3c1.6,0.3,3.1,0.5,4.5,0.5c1.2,0,2.2-0.2,3.1-0.5
		s1.6-0.7,2.2-1.3c0.6-0.5,1-1.2,1.3-1.9c0.3-0.7,0.4-1.5,0.4-2.2c0-0.1,0-0.2,0-0.3c0-0.1,0-0.3-0.1-0.5c-1.3,1.7-3,2.6-5.2,2.6
		c-0.9,0-1.7-0.1-2.4-0.4c-0.7-0.3-1.4-0.7-1.9-1.2c-0.6-0.5-1-1.1-1.3-1.8c-0.3-0.7-0.5-1.4-0.5-2.2c0.1-1.7,0.7-3,1.9-4.1
		c1.2-1,3-1.6,5.4-1.6l1.8,0.3c0.1,0.1,0.2,0.1,0.4,0.1c0.5-0.5,1-1.3,1.4-2.3c0.5-1.1,0.7-2.3,0.7-3.8c0-1.2-0.2-2.2-0.5-3.1
		l-4.1,4.4h-3.6L39.8,28c-1.5-4.2-3.7-6.3-6.6-6.3c-1.1,0-2,0.3-2.6,1c-0.6,0.7-1,1.7-1,3.1v0.4l0.1,1.2c0.7-0.8,1.6-1.2,2.7-1.2
		c0.7,0,1.3,0.1,2,0.4c0.7,0.2,1.3,0.6,1.8,1.1c0.5,0.5,0.9,1.1,1.3,1.8c0.3,0.7,0.5,1.6,0.5,2.6c0,0.8-0.1,1.5-0.4,2.2
		c-0.3,0.7-0.7,1.4-1.2,2c-0.6,0.6-1.3,1.1-2.2,1.4c-0.9,0.4-2,0.5-3.2,0.5c-1.3,0-2.5-0.2-3.5-0.7c-1-0.5-1.8-1.3-2.5-2.6
		c-0.8,1.2-1.6,2.1-2.6,2.6c-1,0.5-2.1,0.7-3.4,0.7c-1.2,0-2.3-0.2-3.2-0.5c-0.9-0.4-1.6-0.8-2.2-1.4c-0.6-0.6-1-1.2-1.2-2
		c-0.3-0.7-0.4-1.5-0.4-2.2v-1.1c0-0.2,0-0.4,0.1-0.7c0-0.5,0.2-1,0.5-1.4c0.3-0.5,0.7-0.9,1.3-1.3c0.5-0.4,1.1-0.7,1.7-0.9
		c0.6-0.2,1.3-0.4,2-0.4c1.1,0,1.9,0.4,2.6,1.2c0.1-0.1,0.1-0.3,0.2-0.7c0.1-0.4,0.1-1,0.1-1.8c0-0.5-0.1-1-0.2-1.6
		c-0.1-0.5-0.3-1-0.7-1.5c-0.3-0.4-0.8-0.8-1.4-1.1c-0.6-0.3-1.3-0.5-2.2-0.6h-5.5V15.6z"/>
	<path class="st0" d="M55.5,15.6h39.6V20H55.5V15.6z M93,27.5c0.2,0.6,0.3,1.2,0.5,2s0.2,1.6,0.2,2.4c0,0.8-0.1,1.7-0.2,2.8
		c-0.2,1-0.4,2.1-0.8,3.2c-0.4,1.1-0.9,2.2-1.6,3.3c-0.7,1.1-1.5,2.1-2.5,3c-2.3,2.1-5.9,3.2-10.7,3.2c-2.9-0.1-5.4-0.6-7.6-1.3
		c-2.1-0.8-4-1.7-5.6-2.9c-1.6-1.2-2.9-2.5-3.9-4c-1-1.5-1.9-3.1-2.5-4.7s-1.1-3.3-1.3-4.9c-0.3-1.7-0.4-3.3-0.4-4.8h8.9
		c0,0,0,0.2-0.1,0.6c0,0.4-0.1,0.8-0.1,1.4c0,1,0.1,2.3,0.4,3.8c0.3,1.5,0.8,3,1.7,4.4c0.9,1.4,2.2,2.6,3.9,3.7c1.7,1,4,1.5,6.9,1.5
		c1.5,0,2.7-0.2,3.6-0.6c0.9-0.4,1.6-0.8,2.1-1.3c0.5-0.5,0.8-1,1-1.5c0.2-0.5,0.2-0.9,0.2-1.1c0-0.1,0-0.2-0.1-0.2h-0.1
		c-2.4,1.5-4.7,2.2-6.9,2.2c-1.4,0-2.8-0.3-4-0.8C73,36.6,71.9,35.9,71,35c-0.9-0.9-1.6-1.9-2.1-3c-0.5-1.1-0.7-2.2-0.7-3.4
		c0-0.5,0.1-1.1,0.2-1.7c0.1-0.6,0.3-1.2,0.6-1.8c0.3-0.6,0.7-1.2,1.3-1.7c0.5-0.5,1.3-1,2.2-1.4c0.5-0.2,1-0.4,1.4-0.5
		c0.5-0.1,1-0.2,1.6-0.2c0.8,0,1.5,0.1,2.2,0.4c0.7,0.3,1.4,0.7,2,1.2c0.6,0.5,1.1,1.1,1.4,1.9c0.4,0.7,0.5,1.5,0.5,2.4
		c0,1.4-0.6,2.8-1.8,4c0.4,0.1,0.8,0.2,1.1,0.2c0.7,0,1.4-0.3,2.1-0.9s1.5-1.6,2.3-3c0,0,0.1-0.2,0.4-0.7s0.5-1.1,0.6-2L93,27.5z"/>
	<path class="st0" d="M128.6,20h-22.8v-4.5h45.4V20h-15.4v1.1c0.1,0,0.3-0.1,0.4-0.1h1.3c2,0,3.8,0.4,5.3,1.1c1.6,0.8,2.9,1.7,3.9,3
		c1.1,1.2,1.9,2.6,2.4,4.1c0.5,1.5,0.8,3,0.8,4.5c0,1.1-0.2,2.1-0.6,3.1s-0.9,1.9-1.6,2.7c-0.7,0.8-1.5,1.4-2.4,1.9
		c-0.9,0.5-1.9,0.7-3,0.7c-0.8,0-1.6-0.2-2.3-0.5c-0.7-0.3-1.3-0.8-1.9-1.3c-0.5-0.5-0.9-1.2-1.2-1.9c-0.3-0.7-0.4-1.5-0.4-2.2
		c0-1.6,0.5-2.8,1.4-3.6c0.9-0.8,2-1.1,3.1-1.1c0.5,0,1,0.1,1.4,0.2c0.4,0.1,0.8,0.2,1.1,0.4l-0.7-0.9c-0.3-0.3-0.6-0.7-1.1-1.1
		c-0.4-0.4-0.9-0.8-1.5-1.1c-0.6-0.3-1.3-0.6-2-0.9c-0.8-0.2-1.6-0.3-2.5-0.3v19.7h-7.2v-1.5c-1.3-0.9-2.8-1.7-4.3-2.4
		c-1.5-0.7-3-1.3-4.5-1.9c-1.5-0.5-2.9-1-4.3-1.3c-1.4-0.3-2.6-0.6-3.8-0.8l-3.9-0.7V27.7l20.6-5.7V20z M128.6,37.1v-7.6l-11.9,3.6
		c2.2,0.1,4.2,0.5,6.1,1.1c1.9,0.6,3.5,1.4,4.8,2.3L128.6,37.1z"/>
	<path class="st0" d="M160.3,20v27.6h-7.2V20h-2.2v-4.5h11.7V20H160.3z"/>
	<path class="st0" d="M176.6,20h-14.5v-4.5h42.6V20h-21.3v1.1h11c1.1,0,2.1,0.2,3.1,0.7c1,0.4,1.8,1,2.6,1.8
		c0.7,0.7,1.3,1.6,1.7,2.6c0.4,1,0.6,2,0.6,3.1v18.3h-6.7V31.9c0-0.4-0.1-0.9-0.3-1.5l-0.1-0.2c-0.3-0.7-0.8-1.2-1.4-1.6
		c-0.6-0.4-1.2-0.7-1.9-0.7h-8.6v2.8l0.2,0.1c0.2,0.1,0.5,0.2,1,0.2c0.5,0,1.1-0.1,1.9-0.3c0.8-0.2,1.7-0.6,2.8-1.3l4.7,5.1
		c0.1,0.7,0.1,1.3,0.2,1.9c0.1,0.6,0.1,1.2,0.1,1.8c0,1.2-0.1,2.4-0.4,3.5c-0.3,1.1-0.8,2.1-1.5,2.9c-0.7,0.8-1.8,1.5-3.1,2
		c-1.3,0.5-3,0.7-5.1,0.7c-3.1,0-5.8-0.4-8-1.1c-2.2-0.7-4.1-1.6-5.6-2.8c-1.5-1.2-2.7-2.4-3.7-3.9s-1.6-2.9-2.1-4.4
		c-0.5-1.5-0.8-2.9-1-4.2c-0.2-1.4-0.3-2.5-0.4-3.5h7.5l-0.1,1.2c0,0.6,0,1.3,0.1,2.1c0.1,0.8,0.3,1.7,0.6,2.6
		c0.3,0.9,0.7,1.8,1.3,2.6c0.6,0.9,1.3,1.7,2.3,2.4c0.9,0.7,2.1,1.3,3.5,1.7c1.4,0.4,3,0.7,5,0.7c0.9,0,1.7-0.1,2.3-0.2
		c0.6-0.1,1-0.3,1.4-0.5c0.3-0.2,0.5-0.5,0.7-0.7c0.1-0.3,0.2-0.5,0.2-0.8c0-0.3,0-0.5-0.1-0.8c-0.1-0.2-0.1-0.4-0.2-0.6l-0.2-0.2
		c-0.4,0.2-1.1,0.4-1.9,0.7c-0.8,0.3-1.7,0.4-2.7,0.4c-0.6,0-1.2-0.1-2-0.3c-0.7-0.2-1.4-0.6-2.1-1.1c-0.7-0.5-1.2-1.2-1.6-2.1
		c-0.4-0.9-0.7-2-0.7-3.5V20z"/>
</g>
</svg>
