<?xml version="1.0" encoding="iso-8859-1"?>
<!-- Generator: Adobe Illustrator 19.0.0, SVG Export Plug-In . SVG Version: 6.00 Build 0)  -->
<svg version="1.1" id="Layer_1" xmlns="http://www.w3.org/2000/svg" xmlns:xlink="http://www.w3.org/1999/xlink" x="0px" y="0px"
	 viewBox="0 0 459.553 459.553" style="enable-background:new 0 0 459.553 459.553;" xml:space="preserve">
<g>
	<g>
		<g>
			<path d="M89.767,300.246l-0.294,39.984c-0.08,10.849,8.664,19.717,19.518,19.784l29.404,0.182l-32.248-33.313l55.91,35.917
				c0.003,0.002,0.006,0.003,0.009,0.005c4.479,2.871,10.111,3.272,14.898,1.173l57.895-25.388
				c8.006-3.512,11.644-12.846,8.136-20.845c-3.478-7.932-12.766-11.648-20.801-8.153c-0.014,0.006-0.029,0.01-0.044,0.017
				c-30.772,13.494-19.392,8.504-50.125,21.981l-50.632-32.526l49.84,16.287l44.817-19.653c10.095-4.427,21.696-3.171,30.627,3.293
				L255,286.124c-0.569-0.02-145.026-5.373-145.594-5.373C98.615,280.751,89.846,289.466,89.767,300.246z"/>
			<path d="M419.453,204.178c-5.331-9.701-17.518-13.242-27.214-7.913l-11.714,6.437l12.704,38.752l18.311-10.062
				C421.24,226.062,424.783,213.878,419.453,204.178z"/>
			<path d="M351.48,264.394c-1.503-2.734-0.673-0.695-13.081-38.545l-35.119,19.297c-1.914,1.051-3.643,2.409-5.119,4.018
				l-48.208,52.563c2.892,2.771,5.283,6.11,6.953,9.919c6.848,15.616-0.208,33.958-15.947,40.857l-10.632,4.662l-8.099,3.551
				c18.827,0.117,18.949-0.109,19.954-0.142c0,0,17.009-1.542,96.991-12.64l83.76,12.267c10.96,1.607,21.129-5.974,22.733-16.925
				s-5.973-21.129-16.924-22.733l-86.581-12.681c-1.871-0.273-3.772-0.282-5.646-0.023l-28.115,3.882l-46.032,35.766l63.103-68.803
				L351.48,264.394z"/>
			<path d="M36.906,358.764c20.572,0.127,37.238-16.483,37.365-36.905c0.127-20.413-16.323-37.237-36.905-37.365
				c-20.509-0.127-37.238,16.396-37.365,36.905C-0.125,341.909,16.397,358.637,36.906,358.764z"/>
			<path d="M438.516,380.751H21.078c-9.472,0-17.151,7.679-17.151,17.151c0,9.472,7.679,17.151,17.151,17.151h417.438
				c9.472,0,17.152-7.679,17.152-17.151C455.668,388.43,447.988,380.751,438.516,380.751z"/>
			<path d="M448.166,44.5H15.047C8.758,44.5,3.66,49.598,3.66,55.887s5.098,11.387,11.387,11.387h90.698v194.125h22.774V67.274
				h173.164l61.818,188.562c1.567,4.78,6.712,7.385,11.494,5.819c4.781-1.568,7.386-6.713,5.819-11.494L320.855,67.274h102.658
				l-37.258,113.647c6.501-3.096,13.513-4.094,20.233-3.233l36.198-110.414h5.48c6.289,0,11.387-5.098,11.387-11.387
				C459.552,49.598,454.454,44.5,448.166,44.5z"/>
		</g>
	</g>
</g>
<g>
</g>
<g>
</g>
<g>
</g>
<g>
</g>
<g>
</g>
<g>
</g>
<g>
</g>
<g>
</g>
<g>
</g>
<g>
</g>
<g>
</g>
<g>
</g>
<g>
</g>
<g>
</g>
<g>
</g>
</svg>
