<?xml version="1.0" encoding="iso-8859-1"?>
<!-- Generator: Adobe Illustrator 19.0.0, SVG Export Plug-In . SVG Version: 6.00 Build 0)  -->
<svg version="1.1" id="Layer_1" xmlns="http://www.w3.org/2000/svg" xmlns:xlink="http://www.w3.org/1999/xlink" x="0px" y="0px"
	 viewBox="0 0 504.542 504.542" style="enable-background:new 0 0 504.542 504.542;" xml:space="preserve">
<g transform="translate(1 1)">
	<path style="fill:#FFD0A1;" d="M222.147,377.027c-8.533-1.707-15.36-4.267-21.333-6.827l-0.853,0.853
		c0,25.6-8.533,42.667-8.533,42.667l3.413,17.067h0.853h110.08h0.853l3.413-17.067l0,0c0,0-8.533-17.067-8.533-42.667l-0.853-0.853
		c-5.973,2.56-12.8,5.12-21.333,6.827c8.533-1.707,15.36-4.267,21.333-6.827c19.627-9.387,28.16-23.04,34.987-33.28
		c17.067-25.6,42.667-93.867,42.667-93.867c9.387,0,17.067-7.68,17.067-17.067v-34.133c0-9.387-7.68-17.067-17.067-17.067
		c-17.067,0-34.133-17.067-34.133-17.067s-34.133-34.133-34.133-68.267c-17.067,29.013-119.467,34.133-153.6,34.133
		c0,17.067-8.533,51.2-17.067,68.267c-17.067,0-17.067-17.067-17.067-17.067c-9.387,0-17.067,7.68-17.067,17.067v34.133
		c0,9.387,7.68,17.067,17.067,17.067c0,0,25.6,68.267,42.667,93.867c6.827,10.24,14.507,23.893,34.987,33.28
		C205.933,372.76,213.614,375.32,222.147,377.027z"/>
	<path style="fill:#80D6FA;" d="M194.84,430.787l13.653,68.267H3.693l8.533-34.133c8.533-25.6,42.667-51.2,179.2-51.2
		L194.84,430.787z M490.094,464.92l8.533,34.133h-204.8l13.653-68.267l3.413-17.067C447.427,413.72,482.414,441.027,490.094,464.92z
		"/>
	<path style="fill:#AE938D;" d="M140.227,191.854c-17.067,0-17.067-17.067-17.067-17.067
		c-17.067-17.067-17.067-34.133-17.067-34.133S106.093,4.12,251.16,4.12c30.72,0,51.2,8.533,42.667,25.6
		c85.333,0,85.333,93.867,85.333,93.867v51.2c-3.413,0-6.827-0.853-9.387-1.707c-13.653-4.267-24.747-15.36-24.747-15.36
		s-34.133-34.133-34.133-68.267c-17.067,29.013-119.467,34.133-153.6,34.133C157.294,140.654,148.76,174.787,140.227,191.854"/>
	<path style="fill:#F2EDDA;" d="M327.96,208.92v8.533c0,14.507-11.093,25.6-25.6,25.6h-17.067c-14.507,0-25.6-11.093-25.6-25.6
		v-8.533c0-9.387,7.68-17.067,17.067-17.067h34.133C320.28,191.854,327.96,199.534,327.96,208.92z M242.627,208.92v8.533
		c0,14.507-11.093,25.6-25.6,25.6H199.96c-14.507,0-25.6-11.093-25.6-25.6v-8.533c0-9.387,7.68-17.067,17.067-17.067h34.133
		C234.947,191.854,242.627,199.534,242.627,208.92z"/>
	<polygon style="fill:#AAB1BA;" points="251.16,499.054 293.827,499.054 307.48,430.787 306.627,430.787 251.16,430.787 
		195.693,430.787 194.84,430.787 208.493,499.054 	"/>
	<path style="fill:#80D6FA;" d="M251.16,413.72c9.387,0,17.067,7.68,17.067,17.067s-7.68,17.067-17.067,17.067
		c-9.387,0-17.067-7.68-17.067-17.067S241.773,413.72,251.16,413.72"/>
</g>
<path style="fill:#51565F;" d="M499.627,504.32c-1.707,0-3.413-1.707-4.267-3.413l-8.533-34.133
	c-10.24-31.573-68.267-47.787-171.52-47.787l-16.213,81.92c-0.853,2.56-2.56,3.413-5.12,3.413c-2.56-0.853-3.413-2.56-3.413-5.12
	l17.067-85.333c0-1.707,2.56-3.413,4.267-3.413c0.853,0,1.707,0,2.56,0c109.227,0,168.107,17.92,180.907,53.76l8.533,34.133
	c0.853,2.56-0.853,4.267-3.413,5.12C500.48,504.32,499.627,504.32,499.627,504.32z M4.693,504.32H3.84
	c-2.56-0.853-3.413-2.56-3.413-5.12l8.533-34.133c7.68-23.893,34.987-54.613,183.467-54.613c1.707,0,3.413,1.707,4.267,3.413
	L213.76,499.2c0.853,2.56-0.853,4.267-3.413,5.12c-2.56,0.853-4.267-0.853-5.12-3.413l-16.213-81.92
	c-104.96,0-161.28,16.213-171.52,48.64L8.96,501.76C8.107,502.614,6.4,504.32,4.693,504.32z M252.16,504.32
	c-2.56,0-4.267-1.707-4.267-4.267V453.12c-9.387-1.707-17.067-10.24-17.067-21.333c0-11.947,9.387-21.333,21.333-21.333
	c11.947,0,21.333,9.387,21.333,21.333c0,10.24-7.68,18.773-17.067,21.333v46.933C256.427,502.614,254.72,504.32,252.16,504.32z
	 M252.16,418.987c-6.827,0-12.8,5.973-12.8,12.8c0,6.827,5.973,12.8,12.8,12.8c6.827,0,12.8-5.973,12.8-12.8
	C264.96,424.96,258.987,418.987,252.16,418.987z M252.16,384.854c-59.733,0-76.8-26.453-87.893-42.667l-1.707-1.707
	c-15.36-23.04-37.547-79.36-41.813-92.16c-10.24-1.707-17.92-10.24-17.92-21.333v-34.133c0-11.947,9.387-21.333,21.333-21.333
	c2.56,0,4.267,1.707,4.267,4.267c0,1.707,0.853,11.093,10.24,12.8c7.68-17.067,15.36-47.787,15.36-64
	c0-2.56,1.707-4.267,4.267-4.267c52.907,0,135.68-8.533,150.187-32.427c0.853-1.707,2.56-2.56,5.12-1.707
	c1.707,0.853,3.413,2.56,3.413,4.267c0,31.573,32.427,64.853,33.28,64.853c1.707,1.707,1.707,4.267,0,5.973
	c-1.707,1.707-4.267,1.707-5.973,0c-1.707-1.707-29.013-29.867-34.133-61.44C279.467,125.44,185.6,128,164.267,128
	c-0.853,17.067-8.533,46.08-16.213,62.293l24.747,18.773c0-11.947,9.387-21.333,21.333-21.333h34.133
	c11.947,0,21.333,9.387,21.333,21.333v8.533c0,16.213-13.653,29.867-29.867,29.867h-17.067c-15.36,0-29.013-11.947-29.867-27.307
	l-31.573-23.893c-12.8-0.853-17.92-9.387-19.627-16.213c-5.12,1.707-9.387,6.827-9.387,11.947v34.133c0,6.827,5.973,12.8,12.8,12.8
	c1.707,0,3.413,0.853,4.267,2.56c0,0.853,25.6,68.267,41.813,93.013l1.707,1.707c10.24,15.36,25.6,38.4,80.213,38.4
	s69.973-23.04,80.213-38.4l1.707-1.707c16.213-24.747,41.813-92.16,41.813-93.013c0.853-1.707,2.56-2.56,4.267-2.56
	c6.827,0,12.8-5.973,12.8-12.8V192c0-6.827-5.973-12.8-12.8-12.8c-2.56,0-4.267-1.707-4.267-4.267v-51.2
	c0-3.413-0.853-89.6-81.067-89.6c-1.707,0-2.56-0.853-3.413-1.707c-0.853-0.853-0.853-2.56,0-4.267
	c2.56-5.12,0.853-8.533,0.853-9.387c-4.267-6.827-18.773-10.24-39.253-10.24c-139.093,0-140.8,127.147-140.8,132.267
	c0,2.56-1.707,4.267-4.267,4.267l0,0c-2.56,0-4.267-1.707-4.267-4.267c0-1.707,1.707-140.8,149.333-140.8
	c14.507,0,39.253,1.707,46.933,14.507c1.707,2.56,2.56,5.973,1.707,11.093c82.773,4.267,83.627,97.28,83.627,98.133v47.787
	c9.387,1.707,17.067,10.24,17.067,20.48v34.133c0,11.093-7.68,19.627-17.92,21.333c-5.12,12.8-26.453,69.12-41.813,92.16
	l-1.707,1.707C328.96,358.4,311.893,384.854,252.16,384.854z M179.627,218.454c0,11.947,9.387,21.333,21.333,21.333h17.067
	c11.947,0,21.333-9.387,21.333-21.333v-8.533c0-6.827-5.973-12.8-12.8-12.8h-34.133c-6.827,0-12.8,5.973-12.8,12.8V218.454
	L179.627,218.454L179.627,218.454z M260.694,333.654h-17.067c-2.56,0-4.267-1.707-4.267-4.267s1.707-4.267,4.267-4.267h17.067
	c2.56,0,4.267,1.707,4.267,4.267S263.254,333.654,260.694,333.654z M286.294,308.054c-0.853,0-17.067,0-34.133-7.68
	c-17.067,7.68-33.28,7.68-34.133,7.68c-2.56,0-4.267-1.707-4.267-4.267c0-2.56,1.707-4.267,4.267-4.267c0,0,16.213,0,32.427-7.68
	c0.853-0.853,2.56-0.853,3.413,0c16.213,7.68,32.427,7.68,32.427,7.68c2.56,0,4.267,1.707,4.267,4.267
	C290.56,306.347,288.854,308.054,286.294,308.054z M303.36,248.32h-17.067c-16.213,0-29.867-13.653-29.867-29.867v-8.533
	c0-11.947,9.387-21.333,21.333-21.333h34.133c11.947,0,21.333,9.387,21.333,21.333l27.307-20.48
	c1.707-1.707,4.267-0.853,5.973,0.853c0.853,0.853,0.853,1.707,0.853,2.56c0,1.707-0.853,2.56-1.707,3.413l-32.427,24.747
	C332.373,236.374,318.72,248.32,303.36,248.32z M277.76,197.12c-6.827,0-12.8,5.973-12.8,12.8v8.533
	c0,11.947,9.387,21.333,21.333,21.333h17.067c11.947,0,21.333-9.387,21.333-21.333l0,0l0,0v-8.533c0-6.827-5.973-12.8-12.8-12.8
	H277.76z"/>
<g>
</g>
<g>
</g>
<g>
</g>
<g>
</g>
<g>
</g>
<g>
</g>
<g>
</g>
<g>
</g>
<g>
</g>
<g>
</g>
<g>
</g>
<g>
</g>
<g>
</g>
<g>
</g>
<g>
</g>
</svg>
