<?xml version="1.0" encoding="UTF-8"?>
<!DOCTYPE svg PUBLIC "-//W3C//DTD SVG 1.1//EN" "http://www.w3.org/Graphics/SVG/1.1/DTD/svg11.dtd">
<!-- Creator: CorelDRAW 2018 (64-Bit) -->
<svg xmlns="http://www.w3.org/2000/svg" xml:space="preserve" width="2.65215in" height="3.21015in" version="1.1" style="shape-rendering:geometricPrecision; text-rendering:geometricPrecision; image-rendering:optimizeQuality; fill-rule:evenodd; clip-rule:evenodd"
viewBox="0 0 2652.16 3210.16"
 xmlns:xlink="http://www.w3.org/1999/xlink">
 <defs>
  <style type="text/css">
   <![CDATA[
    .fil0 {fill:black}
   ]]>
  </style>
 </defs>
 <g id="Layer_x0020_1">
  <metadata id="CorelCorpID_0Corel-Layer"/>
  <path class="fil0" d="M1272.39 15.18c1059.51,-65.27 1424.09,493.24 1351.13,1444.52 138.2,921.4 -270.84,1255.33 -229.6,1725.31 -314.94,-625.61 185.98,-739.63 148.59,-1746.42 -171.41,-216.29 -288.82,-463.73 -366.29,-734.17 -205.47,-477.21 -713.21,-493.49 -919.81,30.21 -206.39,680.1 -80.98,1366.05 238.75,2046.47 -210.28,-157.72 -369.37,-366.11 -463.18,-639.21 48.47,388.95 177.91,698.5 374.95,941.78 -42.22,-4.43 -84.47,-25.3 -126.72,-65.37 21.31,66.04 62.25,129.86 119.24,191.85 -101.14,-50.12 -188.69,-123.57 -255.82,-231.92 10.28,60.84 35.93,121.43 68.52,181.92 -81.59,-57.57 -149.58,-117.47 -195.48,-181.08 0.79,33.06 17.09,71.32 51.35,115.56 -248.24,-106.99 -372.36,-333.83 -744.71,-320.99 -532.44,-1060.95 -528.53,-2962.5 949.09,-2758.47z"/>
 </g>
</svg>
