<?xml version="1.0" encoding="utf-8"?>
<!-- Generator: Adobe Illustrator 26.0.0, SVG Export Plug-In . SVG Version: 6.00 Build 0)  -->
<svg version="1.1" id="Layer_1" xmlns="http://www.w3.org/2000/svg" xmlns:xlink="http://www.w3.org/1999/xlink" x="0px" y="0px"
	 viewBox="0 0 36 36" style="enable-background:new 0 0 36 36;" xml:space="preserve">
<style type="text/css">
	.st0{stroke:#000000;stroke-width:0.2736;stroke-miterlimit:10;}
</style>
<path d="M30,3H14v5h2V5h14c0.6,0,1,0.4,1,1v11c0,0.6-0.4,1-1,1H17v7h-5.3L8,27.9V25H5c-0.6,0-1-0.4-1-1V13c0-0.6,0.4-1,1-1h13v-2H5
	c-1.7,0-3,1.3-3,3v11c0,1.7,1.3,3,3,3h1v5.1l6.3-5.1H19v-7h11c1.7,0,3-1.3,3-3V6C33,4.3,31.7,3,30,3z"/>
<path d="M20.2,16.8c1.1,0,2.6-0.3,4-1c1.4,0.7,3,1,4,1v-2c0,0-1,0-2.1-0.4c1.2-1.2,2.1-3,2.1-5.6v-1h-3v-2h-2v2h-3v2h5.9
	c-0.2,1.8-1,2.9-1.9,3.6c-0.6-0.5-1.2-1.2-1.6-2.1h-2.1c0.4,1.3,1,2.3,1.8,3.1c-1,0.4-1.9,0.4-2.1,0.4V16.8z"/>
<g>
	<path class="st0" d="M12.9,16.5h-1v6.1l-0.2-0.2c-0.2-0.8-0.6-1.5-1.3-2.4C10,20.7,9.5,21,8.9,21c-0.8,0-1.5-0.5-2.2-1.5
		c-0.5-0.8-0.9-1.7-1-2.7l0.4,0.2c0.3,0.9,0.7,1.6,0.9,2c0.5,0.7,1.1,1,1.8,1c0.3,0,0.6-0.1,0.8-0.3s0.3-0.4,0.3-0.7
		c0-0.2-0.1-0.4-0.2-0.7c-0.1-0.3-0.3-0.4-0.5-0.4c-0.1,0.4-0.4,0.6-0.8,0.6c-0.2,0-0.5-0.1-0.7-0.2c-0.2-0.2-0.3-0.4-0.3-0.6
		c0-0.3,0.1-0.5,0.4-0.6c0.2-0.1,0.5-0.2,0.8-0.2c0.5,0,1,0.2,1.4,0.7c0.4,0.4,0.6,0.9,0.6,1.5c0,0.1,0,0.2,0,0.3l0.6,1.2v-3.9H5.5
		l-0.6-0.6h7.3L12.9,16.5z"/>
	<path class="st0" d="M15.8,16.5h-1.5v6.3l-0.6-0.6v-4.5c0-0.3-0.1-0.5-0.2-0.6c-0.3-0.4-0.6-0.5-1-0.5c0,0-0.1,0-0.2,0l-0.6-0.6
		c0.4,0,0.7,0,0.9,0c0.4,0.1,0.7,0.3,0.9,0.8c0.1,0.1,0.2,0.4,0.3,0.7c-0.1-0.4-0.2-1-0.2-1.7c0-0.3,0-0.6,0-1L14,15
		c0,0.2,0.1,0.5,0.2,0.6c0,0.1,0.1,0.1,0.2,0.2h0.9L15.8,16.5z"/>
</g>
</svg>
