<?xml version="1.0" encoding="UTF-8" standalone="no"?> <svg width="64" height="64" viewBox="0 0 64 64" fill="none" xmlns="http://www.w3.org/2000/svg">
<path d="M46 36H34V53H46V36Z" fill="#B8BEBF"/>
<path d="M46 53V50H45C44.2044 50 43.4413 49.6839 42.8787 49.1213C42.3161 48.5587 42 47.7956 42 47V43C42 42.4696 41.7893 41.9609 41.4142 41.5858C41.0391 41.2107 40.5304 41 40 41C39.4696 41 38.9609 41.2107 38.5858 41.5858C38.2107 41.9609 38 42.4696 38 43V50.445C37.3935 50.0969 36.8893 49.5953 36.5383 48.9906C36.1872 48.3858 36.0015 47.6993 36 47V40C36 39.4696 36.2107 38.9609 36.5858 38.5858C36.9609 38.2107 37.4696 38 38 38H46V36H34V53H46Z" fill="#93999A"/>
<path d="M34 34.5V36H46V34.5L51 34.357V26C51 24.4087 50.3679 22.8826 49.2426 21.7574C48.1174 20.6321 46.5913 20 45 20H35C33.4087 20 31.8826 20.6321 30.7574 21.7574C29.6321 22.8826 29 24.4087 29 26V34.357L34 34.5Z" fill="#ADE8F4"/>
<path d="M48 27C47.9988 26.7642 47.953 26.5308 47.865 26.312C47.076 24.3 44 25.048 44 27.206V28C44 28.5304 43.7893 29.0391 43.4142 29.4142C43.0391 29.7893 42.5304 30 42 30H40C39.4696 30 38.9609 29.7893 38.5858 29.4142C38.2107 29.0391 38 28.5304 38 28V27.815C37.974 26.9313 37.7731 26.0615 37.4091 25.2558C37.045 24.4502 36.525 23.7246 35.879 23.121C35.6 22.8428 35.3787 22.5122 35.2279 22.1482C35.077 21.7842 34.9996 21.394 35 21V20C33.4087 20 31.8826 20.6321 30.7574 21.7574C29.6321 22.8826 29 24.4087 29 26V34.357L34 34.5V36H46V34.5L51 34.357V30C50.2044 30 49.4413 29.6839 48.8787 29.1213C48.3161 28.5587 48 27.7956 48 27Z" fill="#48CAE4"/>
<path d="M34 25C34.5304 25 35.0391 25.2107 35.4142 25.5858C35.7893 25.9609 36 26.4696 36 27V36H34V25Z" fill="#00B4D8"/>
<path d="M37.5 18H42.5V21.5C42.5 21.8283 42.4353 22.1534 42.3097 22.4567C42.1841 22.76 41.9999 23.0356 41.7678 23.2678C41.5356 23.4999 41.26 23.6841 40.9567 23.8097C40.6534 23.9353 40.3283 24 40 24V24C39.6717 24 39.3466 23.9353 39.0433 23.8097C38.74 23.6841 38.4644 23.4999 38.2322 23.2678C38.0001 23.0356 37.8159 22.76 37.6903 22.4567C37.5647 22.1534 37.5 21.8283 37.5 21.5V18Z" fill="#EDB88E"/>
<path d="M36 8H40C41.0609 8 42.0783 8.42143 42.8284 9.17157C43.5786 9.92172 44 10.9391 44 12H36V8Z" fill="#00B4D8"/>
<path d="M40 53H46C46.7956 53 47.5587 53.3161 48.1213 53.8787C48.6839 54.4413 49 55.2044 49 56V57H40V53Z" fill="#EDB88E"/>
<path d="M34 53H40V57H31V56C31 55.2044 31.3161 54.4413 31.8787 53.8787C32.4413 53.3161 33.2044 53 34 53V53Z" fill="#EDB88E"/>
<path d="M46 34.5C46 34.8501 46.0734 35.1963 46.2157 35.5162C46.3579 35.8361 46.5658 36.1225 46.8258 36.357C47.0858 36.5914 47.3921 36.7687 47.725 36.8772C48.0578 36.9857 48.4098 37.0231 48.758 36.987C49.389 36.8994 49.9659 36.5832 50.3792 36.0984C50.7925 35.6136 51.0134 34.9939 51 34.357V33H46V34.5Z" fill="#EDB88E"/>
<path d="M29 34.5C29 34.8501 29.0734 35.1963 29.2157 35.5162C29.3579 35.8361 29.5658 36.1225 29.8258 36.357C30.0858 36.5914 30.3921 36.7687 30.725 36.8772C31.0578 36.9857 31.4098 37.0231 31.758 36.987C32.389 36.8994 32.9659 36.5832 33.3792 36.0984C33.7925 35.6136 34.0134 34.9939 34 34.357V33H29V34.5Z" fill="#EDB88E"/>
<path d="M42 22C41.0151 21.9976 40.0663 21.629 39.338 20.966C39.9945 20.9087 40.6266 20.6902 41.1782 20.3297C41.7298 19.9693 42.1839 19.4782 42.5 18.9V18H37.5V21.5C37.5057 22.1196 37.7412 22.715 38.1609 23.1708C38.5807 23.6265 39.1547 23.9102 39.7717 23.9667C40.3888 24.0233 41.0048 23.8487 41.5004 23.4768C41.996 23.1049 42.3358 22.5622 42.454 21.954C42.3037 21.978 42.1521 21.9933 42 22Z" fill="#DA9367"/>
<path d="M36 12H44V16C44 17.0609 43.5786 18.0783 42.8284 18.8284C42.0783 19.5786 41.0609 20 40 20C38.9391 20 37.9217 19.5786 37.1716 18.8284C36.4214 18.0783 36 17.0609 36 16V12Z" fill="#F9DBAF"/>
<path d="M39 15C39 14.4696 39.2107 13.9609 39.5858 13.5858C39.9609 13.2107 40.4696 13 41 13H44V12H36V16C35.9968 16.773 36.2186 17.5302 36.6383 18.1794C37.058 18.8285 37.6574 19.3415 38.3636 19.6559C39.0698 19.9703 39.8521 20.0725 40.6154 19.95C41.3786 19.8275 42.0897 19.4856 42.662 18.966C41.6655 18.8845 40.736 18.4316 40.0577 17.697C39.3795 16.9624 39.0019 15.9998 39 15V15Z" fill="#EDB88E"/>
<path d="M40 10C39.3814 9.99889 38.7784 9.80594 38.274 9.44774C37.7697 9.08954 37.3888 8.58372 37.184 8H36V12H44C43.9964 11.2958 43.8048 10.6054 43.445 10H40Z" fill="#0096C7"/>
<path d="M44 55C43.4696 55 42.9609 54.7893 42.5858 54.4142C42.2107 54.0391 42 53.5304 42 53H40V57H49V56C48.9968 55.6586 48.9345 55.3202 48.816 55H44Z" fill="#DA9367"/>
<path d="M36 55C35.4696 55 34.9609 54.7893 34.5858 54.4142C34.2107 54.0391 34 53.5304 34 53C33.2044 53 32.4413 53.3161 31.8787 53.8787C31.3161 54.4413 31 55.2044 31 56V57H40V55H36Z" fill="#DA9367"/>
<path d="M50 34H51V33H46V34.5C46.0012 34.8958 46.0969 35.2857 46.2792 35.637C46.4615 35.9884 46.7251 36.2911 47.048 36.52C47.1606 35.8178 47.5195 35.1786 48.0603 34.7169C48.6012 34.2551 49.2888 34.001 50 34V34Z" fill="#DA9367"/>
<path d="M30 34H29V33H34V34.5C33.9988 34.8958 33.9031 35.2857 33.7208 35.637C33.5385 35.9884 33.2749 36.2911 32.952 36.52C32.8394 35.8178 32.4805 35.1786 31.9396 34.7169C31.3988 34.2551 30.7112 34.001 30 34V34Z" fill="#DA9367"/>
<path d="M24 16H20V57H24V16Z" fill="#D0D8DA"/>
<path d="M22 53V22.941C22.6822 22.864 23.3533 22.7087 24 22.478V16H20V57H24V55C23.4696 55 22.9609 54.7893 22.5858 54.4142C22.2107 54.0391 22 53.5304 22 53Z" fill="#93999A"/>
<path d="M17 57H51C51.7956 57 52.5587 57.3161 53.1213 57.8787C53.6839 58.4413 54 59.2044 54 60V61H14V60C14 59.2044 14.3161 58.4413 14.8787 57.8787C15.4413 57.3161 16.2044 57 17 57Z" fill="#E9F1F2"/>
<path d="M22 21C26.9706 21 31 16.9706 31 12C31 7.02944 26.9706 3 22 3C17.0294 3 13 7.02944 13 12C13 16.9706 17.0294 21 22 21Z" fill="#FF7373"/>
<path d="M22 19C25.866 19 29 15.866 29 12C29 8.13401 25.866 5 22 5C18.134 5 15 8.13401 15 12C15 15.866 18.134 19 22 19Z" fill="#EF5350"/>
<path d="M25 17C23.5432 17.0033 22.1074 16.652 20.8166 15.9766C19.5257 15.3012 18.4186 14.3218 17.5907 13.1231C16.7629 11.9243 16.2391 10.5421 16.0645 9.09575C15.89 7.64939 16.07 6.18228 16.589 4.821C15.4741 5.65988 14.5697 6.74666 13.9473 7.99538C13.3249 9.24411 13.0016 10.6205 13.003 12.0158C13.0044 13.411 13.3303 14.7868 13.9552 16.0343C14.58 17.2818 15.4865 18.3668 16.603 19.2035C17.7195 20.0402 19.0154 20.6057 20.3882 20.8551C21.7609 21.1045 23.1729 21.0312 24.5124 20.6407C25.8519 20.2503 27.0822 19.5536 28.106 18.6057C29.1297 17.6577 29.9189 16.4846 30.411 15.179C28.8546 16.3607 26.9541 17.0003 25 17Z" fill="#EF5350"/>
<path d="M25 17C22.7933 16.999 20.6639 16.1873 19.0164 14.7193C17.369 13.2512 16.3182 11.229 16.064 9.037C17.1711 7.93137 18.617 7.2289 20.1704 7.04192C21.7238 6.85494 23.2951 7.19425 24.6329 8.0056C25.9708 8.81694 26.9979 10.0535 27.5501 11.5174C28.1023 12.9814 28.1477 14.5882 27.679 16.081C28.7499 14.5965 29.2 12.7531 28.9338 10.9421C28.6676 9.13107 27.706 7.49514 26.2532 6.38162C24.8004 5.26809 22.9708 4.76467 21.1528 4.97823C19.3349 5.19178 17.6718 6.10551 16.5166 7.52539C15.3614 8.94528 14.8051 10.7595 14.9658 12.5829C15.1265 14.4063 15.9916 16.0952 17.3774 17.2911C18.7632 18.487 20.5605 19.0957 22.3878 18.988C24.2151 18.8802 25.9284 18.0645 27.164 16.714C26.4572 16.898 25.7303 16.9941 25 17Z" fill="#E53935"/>
<path d="M23 59C22.3814 58.9989 21.7784 58.8059 21.274 58.4477C20.7697 58.0895 20.3888 57.5837 20.184 57H17C16.2044 57 15.4413 57.3161 14.8787 57.8787C14.3161 58.4413 14 59.2044 14 60V61H54V60C53.9968 59.6586 53.9345 59.3202 53.816 59H23Z" fill="#B8BEBF"/>
<path d="M51 56H50C49.9967 55.1158 49.7005 54.2576 49.1577 53.5596C48.6149 52.8616 47.8561 52.3631 47 52.142V40C47 39.7348 46.8946 39.4804 46.7071 39.2929C46.5196 39.1054 46.2652 39 46 39C45.7348 39 45.4804 39.1054 45.2929 39.2929C45.1053 39.4804 45 39.7348 45 40V52H41V41C41 40.7348 40.8946 40.4804 40.7071 40.2929C40.5196 40.1054 40.2652 40 40 40C39.7348 40 39.4804 40.1054 39.2929 40.2929C39.1053 40.4804 39 40.7348 39 41V52H35V37H46C46.02 37 46.037 36.99 46.056 36.989C46.091 37.022 46.116 37.063 46.156 37.096C46.8028 37.6767 47.6417 37.9973 48.511 37.996C48.6279 37.996 48.7447 37.99 48.861 37.978C49.7365 37.8628 50.5395 37.4307 51.118 36.7635C51.6964 36.0962 52.0102 35.24 52 34.357V26C51.9979 24.1441 51.2597 22.3649 49.9474 21.0526C48.6351 19.7403 46.8559 19.0021 45 19H43.974C44.6358 18.1396 44.9963 17.0855 45 16V12C44.9984 10.6744 44.4711 9.40356 43.5338 8.46622C42.5964 7.52888 41.3256 7.00159 40 7H36C35.7348 7 35.4804 7.10536 35.2929 7.2929C35.1053 7.48043 35 7.73479 35 8V12C35 12.2652 35.1053 12.5196 35.2929 12.7071C35.4804 12.8946 35.7348 13 36 13H43V16C43 16.7957 42.6839 17.5587 42.1213 18.1213C41.5587 18.6839 40.7956 19 40 19C39.2043 19 38.4413 18.6839 37.8787 18.1213C37.3161 17.5587 37 16.7957 37 16C37 15.7348 36.8946 15.4804 36.7071 15.2929C36.5196 15.1054 36.2652 15 36 15C35.7348 15 35.4804 15.1054 35.2929 15.2929C35.1053 15.4804 35 15.7348 35 16C35.0037 17.0855 35.3642 18.1396 36.026 19H35C33.1441 19.0021 31.3649 19.7403 30.0526 21.0526C28.7403 22.3649 28.0021 24.1441 28 26V34.357C27.9889 35.2413 28.3028 36.099 28.8822 36.7672C29.4615 37.4354 30.266 37.8677 31.143 37.982C31.7796 38.0447 32.4213 37.9337 33 37.661V52.142C32.1438 52.3631 31.3851 52.8616 30.8423 53.5596C30.2995 54.2576 30.0033 55.1158 30 56H25V21.539C27.2791 20.8222 29.2263 19.3132 30.4891 17.285C31.7519 15.2568 32.2467 12.8435 31.8842 10.482C31.5216 8.12053 30.3255 5.96688 28.5125 4.41094C26.6994 2.855 24.3892 1.99961 22 1.99961C19.6108 1.99961 17.3006 2.855 15.4875 4.41094C13.6745 5.96688 12.4784 8.12053 12.1158 10.482C11.7532 12.8435 12.2481 15.2568 13.5109 17.285C14.7737 19.3132 16.7209 20.8222 19 21.539V53C19 53.2652 19.1053 53.5196 19.2929 53.7071C19.4804 53.8946 19.7348 54 20 54C20.2652 54 20.5196 53.8946 20.7071 53.7071C20.8946 53.5196 21 53.2652 21 53V21.949C21.6649 22.017 22.3351 22.017 23 21.949V56H17C15.9391 56 14.9217 56.4214 14.1716 57.1716C13.4214 57.9217 13 58.9391 13 60V61C13 61.2652 13.1053 61.5196 13.2929 61.7071C13.4804 61.8946 13.7348 62 14 62H33C33.2652 62 33.5196 61.8946 33.7071 61.7071C33.8946 61.5196 34 61.2652 34 61C34 60.7348 33.8946 60.4804 33.7071 60.2929C33.5196 60.1054 33.2652 60 33 60H15C15 59.4696 15.2107 58.9609 15.5858 58.5858C15.9609 58.2107 16.4696 58 17 58H51C51.5304 58 52.0391 58.2107 52.4142 58.5858C52.7893 58.9609 53 59.4696 53 60H37C36.7348 60 36.4804 60.1054 36.2929 60.2929C36.1053 60.4804 36 60.7348 36 61C36 61.2652 36.1053 61.5196 36.2929 61.7071C36.4804 61.8946 36.7348 62 37 62H54C54.2652 62 54.5196 61.8946 54.7071 61.7071C54.8946 61.5196 55 61.2652 55 61V60C55 58.9391 54.5786 57.9217 53.8284 57.1716C53.0783 56.4214 52.0609 56 51 56ZM22 18C21.7348 18 21.4804 18.1054 21.2929 18.2929C21.1053 18.4804 21 18.7348 21 19V19.931C19.5777 19.7527 18.23 19.1929 17.1 18.311L17.755 17.657C17.9371 17.4684 18.0379 17.2158 18.0357 16.9536C18.0334 16.6914 17.9282 16.4406 17.7428 16.2552C17.5574 16.0698 17.3066 15.9646 17.0444 15.9623C16.7822 15.9601 16.5296 16.0608 16.341 16.243L15.686 16.897C14.806 15.7673 14.2473 14.4209 14.069 13H15C15.2652 13 15.5196 12.8946 15.7071 12.7071C15.8946 12.5196 16 12.2652 16 12C16 11.7348 15.8946 11.4804 15.7071 11.2929C15.5196 11.1054 15.2652 11 15 11H14.069C14.2474 9.57787 14.8068 8.23037 15.688 7.1L16.343 7.754C16.5316 7.93616 16.7842 8.03695 17.0464 8.03468C17.3086 8.0324 17.5594 7.92723 17.7448 7.74182C17.9302 7.55641 18.0354 7.3056 18.0377 7.0434C18.0399 6.78121 17.9392 6.52861 17.757 6.34L17.1 5.689C18.23 4.80706 19.5777 4.24729 21 4.069V5C21 5.26522 21.1053 5.51957 21.2929 5.70711C21.4804 5.89465 21.7348 6 22 6C22.2652 6 22.5196 5.89465 22.7071 5.70711C22.8946 5.51957 23 5.26522 23 5V4.069C24.4223 4.24729 25.7699 4.80706 26.9 5.689L26.245 6.343C26.1495 6.43525 26.0733 6.54559 26.0209 6.6676C25.9685 6.7896 25.9409 6.92082 25.9397 7.0536C25.9386 7.18638 25.9639 7.31806 26.0142 7.44096C26.0645 7.56385 26.1387 7.67551 26.2326 7.7694C26.3265 7.86329 26.4381 7.93754 26.561 7.98782C26.6839 8.03811 26.8156 8.06341 26.9484 8.06225C27.0812 8.0611 27.2124 8.03351 27.3344 7.9811C27.4564 7.9287 27.5667 7.85251 27.659 7.757L28.314 7.103C29.194 8.23273 29.7527 9.57911 29.931 11H29C28.7348 11 28.4804 11.1054 28.2929 11.2929C28.1053 11.4804 28 11.7348 28 12C28 12.2652 28.1053 12.5196 28.2929 12.7071C28.4804 12.8946 28.7348 13 29 13H29.931C29.7526 14.4221 29.1932 15.7696 28.312 16.9L27.657 16.246C27.4684 16.0638 27.2158 15.9631 26.9536 15.9653C26.6914 15.9676 26.4406 16.0728 26.2552 16.2582C26.0698 16.4436 25.9646 16.6944 25.9623 16.9566C25.96 17.2188 26.0608 17.4714 26.243 17.66L26.898 18.314C25.7679 19.1959 24.4203 19.7557 22.998 19.934V19C22.998 18.7351 22.8929 18.4811 22.7058 18.2936C22.5187 18.1061 22.2649 18.0005 22 18ZM50 34.357C50.0149 34.7465 49.8865 35.1279 49.6393 35.4292C49.392 35.7304 49.0429 35.9307 48.658 35.992C48.4488 36.0142 48.2373 35.9921 48.0373 35.9272C47.8372 35.8623 47.653 35.7561 47.4966 35.6154C47.3403 35.4747 47.2153 35.3026 47.1297 35.1105C47.0441 34.9183 46.9999 34.7103 47 34.5V34H50V34.357ZM37 11V9H40C40.6203 9.00076 41.2251 9.19338 41.7316 9.55145C42.2381 9.90951 42.6214 10.4155 42.829 11H37ZM41.5 20.745V21.5C41.5 21.8978 41.342 22.2794 41.0607 22.5607C40.7793 22.842 40.3978 23 40 23C39.6022 23 39.2206 22.842 38.9393 22.5607C38.658 22.2794 38.5 21.8978 38.5 21.5V20.745C39.4711 21.085 40.5289 21.085 41.5 20.745V20.745ZM35 21H36.5V21.5C36.5 22.4283 36.8687 23.3185 37.5251 23.9749C38.1815 24.6313 39.0717 25 40 25C40.9283 25 41.8185 24.6313 42.4749 23.9749C43.1312 23.3185 43.5 22.4283 43.5 21.5V21H45C46.3256 21.0016 47.5964 21.5289 48.5338 22.4662C49.4711 23.4036 49.9984 24.6744 50 26V32H47V26C47 25.7348 46.8946 25.4804 46.7071 25.2929C46.5196 25.1054 46.2652 25 46 25C45.7348 25 45.4804 25.1054 45.2929 25.2929C45.1053 25.4804 45 25.7348 45 26V35H35V26C35 25.7348 34.8946 25.4804 34.7071 25.2929C34.5196 25.1054 34.2652 25 34 25C33.7348 25 33.4804 25.1054 33.2929 25.2929C33.1053 25.4804 33 25.7348 33 26V32H30V26C30.0016 24.6744 30.5289 23.4036 31.4662 22.4662C32.4035 21.5289 33.6744 21.0016 35 21V21ZM32.506 35.613C32.3494 35.7542 32.1648 35.8609 31.9643 35.9262C31.7637 35.9915 31.5517 36.0139 31.342 35.992C30.9571 35.9307 30.608 35.7304 30.3607 35.4292C30.1134 35.1279 29.9851 34.7465 30 34.357V34H33V34.5C33 34.7098 32.9561 34.9172 32.871 35.1089C32.7859 35.3006 32.6616 35.4723 32.506 35.613V35.613ZM34 54H39V56H32C32 55.4696 32.2107 54.9609 32.5858 54.5858C32.9609 54.2107 33.4696 54 34 54ZM41 56V54H46C46.5304 54 47.0391 54.2107 47.4142 54.5858C47.7893 54.9609 48 55.4696 48 56H41Z" fill="#464A51"/>
<path d="M25 16C25.1977 16 25.391 15.9413 25.5554 15.8314C25.7198 15.7215 25.848 15.5654 25.9237 15.3827C25.9993 15.2 26.0191 14.9989 25.9806 14.805C25.942 14.611 25.8468 14.4329 25.707 14.293L22.707 11.293C22.5184 11.1108 22.2658 11.0101 22.0036 11.0123C21.7414 11.0146 21.4906 11.1198 21.3052 11.3052C21.1198 11.4906 21.0146 11.7414 21.0123 12.0036C21.01 12.2658 21.1108 12.5184 21.293 12.707L24.293 15.707C24.4805 15.8946 24.7348 15.9999 25 16Z" fill="#464A51"/>
</svg>
